Coordinates
version=1
nRows=14
nColumns=36
inDegrees=yes

Units are S.I. units (second, meters, Newtons, ...)
If the header above contains a line with 'inDegrees', this indicates whether rotational values are in degrees (yes) or radians (no).

endheader
time	pelvis_tilt	pelvis_list	pelvis_rotation	pelvis_tx	pelvis_ty	pelvis_tz	hip_flexion_r	hip_adduction_r	hip_rotation_r	knee_angle_r	knee_angle_r_beta	ankle_angle_r	subtalar_angle_r	mtp_angle_r	hip_flexion_l	hip_adduction_l	hip_rotation_l	knee_angle_l	knee_angle_l_beta	ankle_angle_l	subtalar_angle_l	mtp_angle_l	lumbar_extension	lumbar_bending	lumbar_rotation	arm_flex_r	arm_add_r	arm_rot_r	elbow_flex_r	pro_sup_r	arm_flex_l	arm_add_l	arm_rot_l	elbow_flex_l	pro_sup_l
      0.00000000	     -3.60618204	     -2.20115141	      4.01183714	     -0.11211486	      1.21710942	      0.40549632	      2.16972467	      1.39615483	      0.28534729	      0.27201484	      0.00474755	      5.47817554	     -5.30026694	     -6.48936115	      1.89697006	     -4.62768525	     -1.71748409	      0.38667974	      0.00674883	      7.47662978	     -2.12301677	     -6.48936115	     -1.89440010	      1.41241289	      1.58366277	      3.43450790	    -10.17569839	      8.20680317	     20.26226102	     86.91303505	      5.03391272	    -11.39176493	     13.00373451	     20.66952246	     89.39383880
      0.01666670	     -5.00691101	     -1.97301098	      3.08204120	     -0.11289208	      1.21161207	      0.40498446	      3.72270214	      1.02555851	     -0.05416772	      0.22932543	      0.00400248	      6.24542466	     -3.62637335	     -6.69964642	      3.35915148	     -4.25254735	     -3.43711089	      0.26569246	      0.00463721	      7.26828124	     -2.15267763	     -6.69964642	     -0.08872495	      1.03193859	      2.09075911	      4.61898428	    -10.03180221	     10.02088249	     18.39399255	     90.14049508	      5.38042522	    -10.86637815	     12.63329539	     18.33921359	     91.71937794
      0.03333330	     -5.55646011	     -2.19332810	      3.56609594	     -0.12086062	      1.21160101	      0.40803202	      4.35447913	      1.34124961	     -0.41529990	      0.23008605	      0.00401576	      6.04733950	     -2.90470786	     -7.05008102	      4.35134707	     -4.55626035	     -4.10593054	      0.25956487	      0.00453026	      6.96622829	     -2.07697945	     -7.05008102	      0.03199153	      1.01944689	      1.69430776	      5.14424291	     -9.63605996	      7.55066556	     17.87223175	     94.37599286	      6.41661783	    -10.83187586	     10.90542433	     17.40903635	     96.98440300
      0.05000000	     -5.81541297	     -2.21076420	      3.96297366	     -0.12215601	      1.20836774	      0.40718984	      4.80914800	      1.23032819	     -1.29657973	      0.24015426	      0.00419148	      5.57525463	     -2.40558665	     -7.13187374	      4.90872700	     -4.56399570	     -5.20611599	      0.25182238	      0.00439513	      6.77559212	     -1.48265759	     -7.13187374	      0.22088297	      0.86384177	      1.29789272	      5.39808156	     -9.53644508	      8.51798109	     17.49283097	     92.96666755	      7.29026693	    -10.76688689	     11.40675350	     16.54195848	     95.81024628
      0.06666670	     -5.48460333	     -2.13237953	      4.04973157	     -0.12285774	      1.21257314	      0.40690294	      4.60227392	      1.20065191	     -1.64836991	      0.26923111	      0.00469897	      5.67436922	     -2.07760363	     -7.32834033	      4.69790935	     -4.51998516	     -5.73989127	      0.27061030	      0.00472304	      6.65301775	     -1.36641417	     -7.32834033	     -0.46481746	      0.69825355	      1.31542507	      5.58981398	     -9.39526227	      8.35970664	     17.63469307	     95.06238721	      7.62901035	    -10.83477589	     10.88352866	     16.90510242	     99.97734480
      0.08333330	     -5.27413146	     -2.07798357	      4.07341113	     -0.12302262	      1.20992079	      0.40634418	      4.43884345	      1.20381224	     -1.52749192	      0.29626752	      0.00517084	      5.52036227	     -2.36626851	     -7.34363437	      4.56095950	     -4.46336506	     -6.26343157	      0.28349775	      0.00494797	      6.50723481	     -1.17889866	     -7.34363437	     -0.75652123	      0.56656145	      1.45726050	      5.78663631	     -9.29056330	      8.77226717	     17.34570866	     94.33730343	      8.31206932	    -10.68981464	     10.96955567	     16.30010270	     99.42845611
      0.10000000	     -5.25152398	     -2.04975554	      4.05023841	     -0.12328308	      1.21369606	      0.40648257	      4.46597455	      1.19033122	     -1.25221415	      0.31874213	      0.00556310	      5.24922426	     -2.78290140	     -7.37317576	      4.53162638	     -4.45843496	     -6.59739762	      0.28719589	      0.00501251	      6.40551172	     -0.80073296	     -7.37317576	     -0.74555477	      0.43570356	      1.49130709	      5.73500076	     -9.27543266	      9.84094414	     17.43825243	     93.20462731	      8.55574038	    -10.73620529	     11.89697204	     16.09870993	     99.11810086
      0.11666670	     -5.22832642	     -1.97353764	      4.05435219	     -0.11618013	      1.21180018	      0.40276981	      4.35850802	      1.10606545	     -1.10738354	      0.33300690	      0.00581207	      5.28969073	     -2.87180543	     -7.37824840	      4.39194168	     -4.34983325	     -6.74003043	      0.29092082	      0.00507753	      6.40285384	     -0.60069246	     -7.37824840	     -0.59700632	      0.31128126	      1.46753776	      5.25709474	     -9.26267603	     10.31229908	     17.39676894	     94.16134529	      8.44422700	    -10.73738611	     12.34163311	     16.03256958	    100.51432757
      0.13333330	     -5.35889464	     -1.90746794	      4.01237956	     -0.11583671	      1.21429943	      0.40278007	      4.42579341	      1.01939413	     -0.80862371	      0.32941019	      0.00574929	      5.26686868	     -3.21292619	     -7.41249306	      4.40054028	     -4.26695290	     -7.14472820	      0.29407623	      0.00513260	      6.47219925	     -0.21423265	     -7.41249306	     -0.18742101	      0.21018158	      1.31564194	      5.05063993	     -9.20183911	     11.54386998	     17.21203949	     91.60203093	      8.38745794	    -10.64008994	     13.21493696	     15.49076257	     98.78491630
      0.15000000	     -5.40254948	     -1.90243649	      4.18526998	     -0.11561966	      1.21078492	      0.40246584	      4.34456967	      1.00040397	     -0.71901138	      0.32244999	      0.00562781	      5.38283022	     -3.24998086	     -7.41293915	      4.37620853	     -4.23826365	     -7.26270927	      0.30431448	      0.00531129	      6.35760873	     -0.23745539	     -7.41293915	     -0.02576768	      0.14606604	      1.09565582	      4.61428407	     -9.13288280	     11.55847818	     17.25988361	     91.51380653	      8.32498452	    -10.64910190	     13.21426357	     15.58928158	     98.72018688
      0.16666670	     -5.63705964	     -1.86615262	      4.21509522	     -0.11564333	      1.21385429	      0.40273668	      4.46712854	      0.95505532	     -0.31066397	      0.31040220	      0.00541754	      5.40592905	     -3.74409852	     -7.44456152	      4.49447251	     -4.17815859	     -7.44510860	      0.29829184	      0.00520617	      6.21875227	     -0.13944314	     -7.44456152	      0.33354654	      0.02588759	      1.02048535	      4.50413379	     -9.25158061	     12.58754060	     17.67314752	     91.11399882	      8.28918045	    -10.70074597	     14.14085525	     15.25700494	    100.53485750
      0.18333330	     -5.90497737	     -1.85247336	      4.25531750	     -0.11478987	      1.20660924	      0.40248317	      4.66442721	      0.94704725	     -0.05037413	      0.30606568	      0.00534185	      5.45454351	     -3.98240031	     -7.44878867	      4.71485475	     -4.11846157	     -7.42023393	      0.30139180	      0.00526028	      6.26553514	     -0.15380818	     -7.44878867	      0.69790982	     -0.03056250	      0.82828245	      4.41393798	     -9.12881832	     12.39761726	     17.51951538	     90.38855485	      8.24118729	    -10.61039501	     13.70915569	     14.89676403	     99.88318958
      0.20000000	     -6.22523195	     -1.88771512	      4.36735018	     -0.11471021	      1.20967472	      0.40270465	      4.98256937	      0.97103668	      0.01707730	      0.29702587	      0.00518408	      5.53013920	     -4.09041164	     -7.46151342	      5.04086275	     -4.09195093	     -7.48614851	      0.29808972	      0.00520265	      6.42504437	     -0.00481010	     -7.46151342	      1.15385718	     -0.01709358	      0.50898218	      4.37521109	     -9.03384596	     13.15935188	     17.25811879	     87.54832649	      8.08705449	    -10.52055503	     14.14634277	     14.50582278	     96.74307707
      0.21666670	     -6.25634769	     -1.90969217	      4.44867410	     -0.12174673	      1.20930347	      0.40608879	      5.09246798	      1.00667906	      0.05292396	      0.28577523	      0.00498772	      5.56187820	     -4.09955927	     -7.46154272	      5.11679879	     -4.11226554	     -7.50890031	      0.28758180	      0.00501925	      6.47568631	     -0.02433962	     -7.46154272	      1.14172354	     -0.04181051	      0.50538753	      4.49602387	     -9.02397783	     13.15963567	     17.32160738	     87.55682707	      8.17674924	    -10.53272758	     14.14621653	     14.53307996	     96.75954120
